<svg xmlns="http://www.w3.org/2000/svg" viewBox="0 0 1008 1008"><defs><style>.a{opacity:0.6;}</style></defs><path d="M613 395.5a333.4 333.4 0 0 1 57-4.5c129 2 241.8 99.5 262.4 226.7 23.7 146.4-69 282-213.6 312.8-145.4 31-291.4-64.6-321.5-210a273.4 273.4 0 0 1-2-102.4l.6-4v-2.4Q425 480 545 419c21.3-11 44.3-17.7 68-22.7z"/><path class="a" d="M607 392.5c-23.4 5-46.4 11.8-68 22.7Q419 476 390.3 607.7l-.7 2.4c-21 4-42.2 5-63.5 4-16 0-32-2-49-6a268.3 268.3 0 0 1-68-25.2 260.3 260.3 0 0 1-45-30.4c-8-6.6-15-13.3-22-21a288.8 288.8 0 0 1-38.6-51.4 274.4 274.4 0 0 1-29-71.3 268.6 268.6 0 0 1-6.7-40c-1.2-13-.6-26.2-.7-39.3 0-16.3 2.5-32.2 6-48A272 272 0 0 1 129 167a251 251 0 0 1 20.7-22.7 288.3 288.3 0 0 1 51.5-38.7 273.6 273.6 0 0 1 71.3-29 270.3 270.3 0 0 1 40-6.7c13.2-2 26.2-1 39.3-1 16.3 0 32.3 2 48 6a272.3 272.3 0 0 1 113.7 56 266 266 0 0 1 20 18 282.6 282.6 0 0 1 40.5 54 271.8 271.8 0 0 1 30 72.5 259 259 0 0 1 6.4 40c1.4 15.5.8 31 .6 46.3-.3 10-2.6 20.3-4 30.5z"/></svg>
